<?xml version="1.0" encoding="utf-8"?>
<!-- Generator: Adobe Illustrator 13.0.1, SVG Export Plug-In . SVG Version: 6.00 Build 14948)  -->
<!DOCTYPE svg PUBLIC "-//W3C//DTD SVG 1.0//EN" "http://www.w3.org/TR/2001/REC-SVG-20010904/DTD/svg10.dtd">
<svg version="1.0"
	 id="svg2995" inkscape:export-filename="G:\SBF\KartGis\Symbolbibliotek\Eskilstunakartan_symbolbibliotek_exempel\FÃƒÆ’Ã‚Â¤rdiga pins okonverterade\fornlamning.png" inkscape:version="0.48.2 r9819" inkscape:export-ydpi="90" inkscape:export-xdpi="90" sodipodi:docname="fornlamning_yta.svg" xmlns:cc="http://creativecommons.org/ns#" xmlns:rdf="http://www.w3.org/1999/02/22-rdf-syntax-ns#" xmlns:svg="http://www.w3.org/2000/svg" xmlns:sodipodi="http://sodipodi.sourceforge.net/DTD/sodipodi-0.dtd" xmlns:inkscape="http://www.inkscape.org/namespaces/inkscape" xmlns:dc="http://purl.org/dc/elements/1.1/"
	 xmlns="http://www.w3.org/2000/svg" xmlns:xlink="http://www.w3.org/1999/xlink" x="0px" y="0px" width="600px" height="600px"
	 viewBox="0 0 600 600" enable-background="new 0 0 600 600" xml:space="preserve">
<sodipodi:namedview  id="namedview2997" inkscape:current-layer="svg2995" inkscape:window-y="-8" inkscape:window-x="3832" inkscape:guide-bbox="true" inkscape:window-height="962" inkscape:window-width="1280" inkscape:pageshadow="2" inkscape:pageopacity="0" inkscape:snap-global="false" inkscape:window-maximized="1" pagecolor="#000000" showguides="true" guidetolerance="10" borderopacity="1" inkscape:cy="331.14605" inkscape:zoom="1.5733333" gridtolerance="10" showgrid="true" objecttolerance="10" bordercolor="#666666" inkscape:cx="343.60662">
	<sodipodi:guide  id="guide2999" position="20,300" orientation="0,1"></sodipodi:guide>
	<sodipodi:guide  id="guide3001" position="600,1046.1864" orientation="1,0"></sodipodi:guide>
	<sodipodi:guide  id="guide2987" position="813.55932,1563.5593" orientation="1,0"></sodipodi:guide>
	<sodipodi:guide  id="guide2989" position="300,580" orientation="1,0"></sodipodi:guide>
	<sodipodi:guide  id="guide2991" position="1105.9322,718.22034" orientation="0,1"></sodipodi:guide>
	<sodipodi:guide  id="guide2993" position="-695.33898,936.8644" orientation="0,1"></sodipodi:guide>
	<sodipodi:guide  id="guide2995" position="1125,1163.1356" orientation="0,1"></sodipodi:guide>
	<inkscape:grid  type="xygrid" id="grid2991" enabled="true" visible="true" snapvisiblegridlinesonly="true" empspacing="5">
		</inkscape:grid>
	<sodipodi:guide  id="guide3762" position="-90.889832,150" orientation="0,1"></sodipodi:guide>
	<sodipodi:guide  id="guide3764" position="-188.1356,450.6356" orientation="0,1"></sodipodi:guide>
	<sodipodi:guide  id="guide3768" position="150,458.89831" orientation="1,0"></sodipodi:guide>
	<sodipodi:guide  id="guide3770" position="450.00001,483.68645" orientation="1,0"></sodipodi:guide>
</sodipodi:namedview>
<path id="path3783" sodipodi:nodetypes="ccccccccccccccccccccccccc" inkscape:connector-curvature="0" fill="#FFFFFF" stroke="#735739" stroke-width="25" d="
	M149.269,510.963c0.131,0.884,1.418-436.665,1.418-436.665c13.69-13.943,33.472,0.89,47.969,6.521
	c41.093,19.37,82.638,38.218,124.094,57.515c27.491,13.015,55.444,25.178,82.668,38.547c22.173,10.01,44.521,19.906,66.27,30.535
	c12.071,14.021-17.446,23.146-27.033,30.22C409,259.15,373.33,280.877,337.351,302.021c-19.592,8.933,3.538,20.435,11.781,28.511
	c32.808,28.443,65.312,57.505,98.384,85.999c21.521,19.049,44.001,38.419,65.82,57.763c-21.012,11.723-43.036,23.263-64.679,34.598
	c-15.292-12.851-30.521-25.899-46.188-38.327c-29.264-26.439-60.526-50.911-90.15-77.1c-22.537-18.313-44.198-37.439-66.588-56
	c-10.194-10.844-10.216,3.884-9.316,11.508c0,54.298,0,108.595,0,162.892C207.378,511.523,178.222,512.641,149.269,510.963
	L149.269,510.963z M244.451,284.39c23.742-15.406,48.646-29.877,72.02-45.859c10.952-5.17,31.304-15.709,9.645-22.529
	c-27.007-12.15-53.898-24.515-81.112-36.708c-11.81-5.258-6.769,8.57-7.786,15.331c0.354,30.143-0.958,60.398,1.063,90.448
	C240.052,286.567,242.88,285.808,244.451,284.39z"/>
</svg>
